<svg width="190" height="89" viewBox="0 0 190 89" fill="none" xmlns="http://www.w3.org/2000/svg">
<path d="M12.5618 2.5L12.5618 88.0116" stroke="white"/>
<line y1="16.5" x2="26" y2="16.5" stroke="white"/>
<circle cx="12.5" cy="1.5" r="1" stroke="white"/>
<line x1="10.5" y1="22" x2="10.5" y2="81" stroke="white"/>
<path d="M25.8613 48.3516C24.3262 48.3516 22.9141 47.9414 21.625 47.1211C20.3477 46.2891 19.3457 45.1523 18.6191 43.7109C17.8926 42.2695 17.5293 40.6699 17.5293 38.9121V38.1211C17.5293 36.3633 17.8809 34.752 18.584 33.2871C19.2871 31.8223 20.2539 30.6797 21.4844 29.8594C22.7148 29.0391 24.0566 28.6289 25.5098 28.6289C27.6309 28.6289 29.3652 29.3848 30.7129 30.8965C32.0605 32.4082 32.7344 34.3945 32.7344 36.8555V37.8574H18.4785V38.8945C18.4785 40.4414 18.8008 41.877 19.4453 43.2012C20.1016 44.5137 20.998 45.5449 22.1348 46.2949C23.2832 47.0449 24.5254 47.4199 25.8613 47.4199C27.1387 47.4199 28.2227 47.209 29.1133 46.7871C30.0156 46.3535 30.8125 45.6914 31.5039 44.8008L32.1719 45.2754C30.7539 47.3262 28.6504 48.3516 25.8613 48.3516ZM25.5098 29.5781C23.6582 29.5781 22.0879 30.2695 20.7988 31.6523C19.5098 33.0234 18.7539 34.7754 18.5312 36.9082H31.7852V36.6797C31.7852 35.3906 31.5098 34.1953 30.959 33.0938C30.4199 31.9805 29.6699 31.1191 28.709 30.5098C27.7598 29.8887 26.6934 29.5781 25.5098 29.5781ZM50.7695 48H49.8203V35.2207C49.8086 33.3105 49.3867 31.8926 48.5547 30.9668C47.7344 30.0293 46.4219 29.5605 44.6172 29.5605C42.5312 29.5605 40.8262 30.4805 39.502 32.3203C38.7168 33.4219 38.1953 34.6406 37.9375 35.9766V48H36.9707V28.9805H37.9375V33.4805C38.582 31.9336 39.502 30.7383 40.6973 29.8945C41.8926 29.0508 43.2168 28.6289 44.6699 28.6289C46.2637 28.6289 47.5645 28.9805 48.5723 29.6836C49.5918 30.3867 50.2598 31.5352 50.5762 33.1289C51.1387 31.7578 52.0527 30.668 53.3184 29.8594C54.584 29.0391 56.002 28.6289 57.5723 28.6289C59.623 28.6289 61.1465 29.209 62.1426 30.3691C63.1504 31.5293 63.6602 33.2695 63.6719 35.5898V48H62.7227V35.6602C62.7227 33.5742 62.3008 32.0332 61.457 31.0371C60.625 30.0293 59.3125 29.5371 57.5195 29.5605C55.2109 29.5957 53.3828 30.5156 52.0352 32.3203C51.2617 33.3633 50.8398 34.3711 50.7695 35.3438V48ZM70.3867 33.4102C71.0078 31.9336 71.9219 30.7676 73.1289 29.9121C74.3359 29.0566 75.6719 28.6289 77.1367 28.6289C79.1758 28.6289 80.6875 29.209 81.6719 30.3691C82.668 31.5176 83.1719 33.2578 83.1836 35.5898V48H82.2344V35.5547C82.2227 33.5156 81.8066 32.0098 80.9863 31.0371C80.166 30.0527 78.8652 29.5605 77.084 29.5605C75.4434 29.5605 74.0195 30.1465 72.8125 31.3184C71.6172 32.4785 70.8086 33.9785 70.3867 35.8184V48H69.4375V28.9805H70.3867V33.4102ZM90.3379 48H89.3887V28.9805H90.3379V48ZM88.8965 23.0391C88.8965 22.7695 88.9902 22.541 89.1777 22.3535C89.3652 22.1543 89.5938 22.0547 89.8633 22.0547C90.1328 22.0547 90.3613 22.1543 90.5488 22.3535C90.748 22.541 90.8477 22.7695 90.8477 23.0391C90.8477 23.3086 90.748 23.5371 90.5488 23.7246C90.3613 23.9121 90.1328 24.0059 89.8633 24.0059C89.5938 24.0059 89.3652 23.9121 89.1777 23.7246C88.9902 23.5371 88.8965 23.3086 88.8965 23.0391ZM98.7051 23.8477V28.9805H103.029V29.9473H98.7051V43.4473C98.7051 44.7949 98.9219 45.791 99.3555 46.4355C99.8008 47.0801 100.539 47.4023 101.57 47.4023C102.086 47.4023 102.713 47.3496 103.451 47.2441L103.609 48.1406C103.223 48.2812 102.561 48.3516 101.623 48.3516C100.24 48.3516 99.25 47.9707 98.6523 47.209C98.0547 46.4355 97.75 45.2227 97.7383 43.5703V29.9473H94.2227V28.9805H97.7383V23.8477H98.7051ZM119.693 43.3418C119.693 41.0332 117.725 39.4629 113.787 38.6309C111.42 38.127 109.773 37.4824 108.848 36.6973C107.922 35.9004 107.459 34.8105 107.459 33.4277C107.459 32.0332 108.045 30.8848 109.217 29.9824C110.4 29.0801 111.936 28.6289 113.822 28.6289C115.873 28.6289 117.52 29.1211 118.762 30.1055C120.004 31.0781 120.625 32.3965 120.625 34.0605H119.658C119.658 32.7832 119.119 31.7168 118.041 30.8613C116.963 30.0059 115.557 29.5781 113.822 29.5781C112.158 29.5781 110.84 29.9414 109.867 30.668C108.895 31.3945 108.408 32.3027 108.408 33.3926C108.408 34.248 108.59 34.9219 108.953 35.4141C109.316 35.8945 109.908 36.334 110.729 36.7324C111.549 37.1191 112.744 37.4941 114.314 37.8574C115.885 38.2207 117.127 38.6484 118.041 39.1406C118.955 39.6328 119.617 40.2188 120.027 40.8984C120.438 41.5664 120.643 42.3867 120.643 43.3594C120.643 44.8594 120.027 46.0664 118.797 46.9805C117.566 47.8945 115.955 48.3516 113.963 48.3516C111.83 48.3516 110.107 47.8711 108.795 46.9102C107.494 45.9375 106.844 44.6895 106.844 43.166H107.793C107.887 44.502 108.473 45.5449 109.551 46.2949C110.641 47.0332 112.111 47.4023 113.963 47.4023C115.662 47.4023 117.039 47.0098 118.094 46.2246C119.16 45.4277 119.693 44.4668 119.693 43.3418ZM138.186 48C137.951 47.1914 137.834 46.0312 137.834 44.5195C137.084 45.7383 136.059 46.6816 134.758 47.3496C133.457 48.0176 131.986 48.3516 130.346 48.3516C128.588 48.3516 127.17 47.877 126.092 46.9277C125.025 45.9668 124.492 44.7188 124.492 43.1836C124.492 41.4375 125.277 40.043 126.848 39C128.43 37.9453 130.527 37.4062 133.141 37.3828H137.834V34.6055C137.834 33.0117 137.33 31.7754 136.322 30.8965C135.326 30.0176 133.896 29.5781 132.033 29.5781C130.299 29.5781 128.852 30.0234 127.691 30.9141C126.531 31.8047 125.951 32.9062 125.951 34.2188L125.002 34.1836C125.002 32.6367 125.682 31.3242 127.041 30.2461C128.4 29.168 130.064 28.6289 132.033 28.6289C134.084 28.6289 135.713 29.1445 136.92 30.1758C138.127 31.1953 138.748 32.6367 138.783 34.5V43.5879C138.783 45.6738 138.947 47.0918 139.275 47.8418V48H138.186ZM130.346 47.4199C132.127 47.4199 133.656 47.0215 134.934 46.2246C136.223 45.4277 137.189 44.3086 137.834 42.8672V38.3496H133.439C130.721 38.3496 128.641 38.8887 127.199 39.9668C126.027 40.8457 125.441 41.9414 125.441 43.2539C125.441 44.4141 125.904 45.3984 126.83 46.207C127.756 47.0156 128.928 47.4199 130.346 47.4199Z" fill="white"/>
</svg>
